<svg version="1.1" xmlns="http://www.w3.org/2000/svg" viewBox="0 0 240 512">
<path fill="#CF4647" d="M235.6,131.3c0,0-15.9,13.2-117,13.2c-101.1,0-115.3-12.9-115.3-12.9l25.8,248.3c0,0,22.2,17.5,89,17.5 c66.8,0,89.9-17.3,89.9-17.3L235.6,131.3z M149.6,107c-9.4-0.3-19.4-0.5-29.6-0.5c-65,0-117.7,7.4-117.7,16.5S55,139.6,120,139.6 s117.7-7.4,117.7-16.5c0-6.6-27.7-12.3-67.6-15l8.1-32.2l58.3-61.3l-0.3-0.2c0.2-0.1,0.3-0.2,0.5-0.4c1.5-1.7-0.7-6-5-9.7 c-4.2-3.6-8.8-5.2-10.3-3.5c-0.2,0.2-0.3,0.5-0.4,0.8l-61.7,65.3L149.6,107L149.6,107z M183.9,496.2c0,8.7-28.7,15.8-64.1,15.8 s-64.1-7.1-64.1-15.8l-5.5-81.2l-15.5-25.8c0,0,31,12.7,83.8,12.7c52.8,0,84.3-12.9,84.3-12.9l-13.8,23.7L183.9,496.2L183.9,496.2z M164.5,127.5c2-0.3,5-0.6,5-3c0-1.4-1.2-2.2-2.5-2.6l-1,1.6c0.8,0.2,1.3,0.5,1.3,0.7c0,0.9-6.4,1.3-11.6,1.4 c-5.2,0.1-12.1-0.6-12.1-1.5c0-0.2,0.2-0.4,0.7-0.5l-1-1.6c-1.1,0.5-1.9,1.2-1.9,2.4c0,0.6,0.3,1.5,0.8,2c1.9,1.7,6.7,1.8,13.4,1.8 C162.2,128.1,164.5,127.6,164.5,127.5L164.5,127.5z"/>
<ellipse fill="#F7F8F8" cx="120" cy="272.5" rx="80.3" ry="80.3"/>
<path fill="#CF4647" d="M127.9,284.4c-0.2-0.5-0.5-0.8-1-1c-10.3-3.7-18.4-7.8-24.3-12.1c5.3-6.2,9.7-14.6,13.1-25.1H126 c0.9,0,1.6-0.7,1.6-1.6v-6.3c0-0.9-0.7-1.6-1.6-1.6H99.8c-1.3-3.1-3.1-6.6-5.3-10.3c-0.4-0.6-1.2-0.9-1.9-0.7l-6.6,2.1 c-0.5,0.2-0.9,0.5-1,1c-0.2,0.5-0.1,1,0.2,1.4c1.4,2,2.7,4.2,3.8,6.4H64.4c-0.9,0-1.6,0.7-1.6,1.6v6.3c0,0.9,0.7,1.6,1.6,1.6h13.3 l-1.8,0.7c-0.8,0.3-1.2,1.2-0.9,2.1c3.5,9.2,7.8,16.7,12.9,22.3c-5.9,4.3-14.1,8.2-24.4,11.5c-0.5,0.2-0.8,0.5-1,1 c-0.2,0.5-0.1,1,0.1,1.4l3.5,5.6c0.4,0.6,1.1,0.9,1.8,0.7c10.3-3,19.5-7.6,27.5-13.7c7.3,5.6,16.3,10.4,26.7,14.2 c0.2,0.1,0.4,0.1,0.6,0.1c0.5,0,1-0.3,1.3-0.7l3.8-5.6C128,285.4,128.1,284.9,127.9,284.4z M95.2,264.9c-4.1-4.4-7.8-10.7-10.8-18.7 h21C102.7,254.2,99.3,260.5,95.2,264.9z"/>
<path fill="#CF4647" d="M173.8,315.1l-20.1-53.7c-0.2-0.6-0.8-1-1.5-1h-9.3c-0.7,0-1.3,0.4-1.5,1l-20.2,53.7c-0.2,0.5-0.1,1,0.2,1.5 c0.3,0.4,0.8,0.7,1.3,0.7h9.1c0.7,0,1.3-0.4,1.5-1.1l4.4-12.9H157l4.6,12.9c0.2,0.6,0.8,1.1,1.5,1.1h9.1c0.5,0,1-0.3,1.3-0.7 C173.9,316.2,173.9,315.6,173.8,315.1z M147.3,275.7l6.2,17.5h-12.3L147.3,275.7z"/>
<path fill="#CF4647" d="M105,312.9L105,312.9c0-0.1,0-0.2-0.1-0.3c0,0,0,0,0,0c0-0.1,0-0.2-0.1-0.2 c0,0,0,0,0-0.1c0,0-0.1-0.1-0.1-0.2c0,0,0,0,0-0.1c0-0.1-0.1-0.1-0.1-0.2c0-0.1-0.1-0.1-0.2-0.2c0,0,0,0,0,0c0,0-0.1-0.1-0.2-0.1 c0,0,0,0-0.1,0c0,0-0.1-0.1-0.2-0.1c0,0,0,0-0.1,0c-0.1,0-0.2-0.1-0.2-0.1l-11.3-5c-1.1-0.5-2.4,0-2.9,1.1c-0.5,1.1,0,2.4,1.1,2.9 l7.6,3.3c-4.3,2.1-9.4,2.2-13.7-0.1l0,0c-5.5-2.7-8.8-8.5-8.5-14.8c0.1-1.2-0.9-2.3-2.1-2.3c-1.2-0.1-2.3,0.9-2.3,2.1 c-0.4,8,3.9,15.5,11,19c2.6,1.4,5.5,2.1,8.4,2.2c2.4,0.1,4.9-0.3,7.2-1.2l-2.2,4.9c-0.5,1.1,0,2.5,1.1,2.9c0.3,0.1,0.6,0.2,0.8,0.2 c0.9,0,1.7-0.5,2.1-1.3l4.9-11.2c0,0,0,0,0-0.1c0,0,0,0,0-0.1c0-0.1,0-0.1,0.1-0.2c0,0,0,0,0-0.1c0-0.1,0-0.2,0.1-0.3 c0-0.1,0-0.2,0-0.2c0,0,0,0,0-0.1C105.1,313.1,105,313,105,312.9C105,313,105,313,105,312.9L105,312.9z"/>
<path fill="#CF4647" d="M130.3,232.2L130.3,232.2c0,0.1,0,0.2,0.1,0.3c0,0,0,0,0,0 c0,0.1,0,0.2,0.1,0.2c0,0,0,0,0,0.1c0,0,0.1,0.1,0.1,0.2c0,0,0,0,0,0.1c0,0.1,0.1,0.1,0.1,0.2c0,0.1,0.1,0.1,0.2,0.2c0,0,0,0,0,0 c0,0,0.1,0.1,0.2,0.1c0,0,0,0,0.1,0c0,0,0.1,0.1,0.2,0.1c0,0,0,0,0.1,0c0.1,0,0.2,0.1,0.2,0.1l11.3,5c1.1,0.5,2.4,0,2.9-1.1 c0.5-1.1,0-2.4-1.1-2.9l-7.6-3.3c4.3-2.1,9.4-2.2,13.7,0.1l0,0c5.5,2.7,8.8,8.5,8.5,14.8c-0.1,1.2,0.9,2.3,2.1,2.3c0,0,0,0,0,0 c1.2,0,2.2-0.9,2.3-2.1c0.4-8.1-3.9-15.5-11-19.1l0,0c-4.9-2.5-10.5-2.8-15.6-1l2.2-4.9c0.5-1.1,0-2.5-1.1-2.9 c-1.1-0.5-2.5,0-2.9,1.1l-4.9,11.2c0,0,0,0,0,0.1c0,0,0,0.1,0,0.1c0,0.1,0,0.1-0.1,0.2c0,0,0,0,0,0.1c0,0.1,0,0.2-0.1,0.3 c0,0.1,0,0.2,0,0.2c0,0,0,0,0,0.1C130.3,232,130.4,232.1,130.3,232.2C130.3,232.2,130.3,232.2,130.3,232.2L130.3,232.2z"/>
</svg>
